<?xml version="1.0" encoding="UTF-8"?>
<svg version="1.1" xmlns="http://www.w3.org/2000/svg" width="5000" height="5000">
<path d="M0 0 C2.68000544 0.19040262 5.36049842 0.37272148 8.04107666 0.55487061 C56.87376136 3.92875476 105.42895209 10.17396559 153.53863525 19.18035889 C154.8807608 19.43015503 154.8807608 19.43015503 156.25 19.68499756 C245.20014453 36.29199055 332.829161 62.91450252 415.67633057 99.36187744 C417.52235665 100.17320445 419.37010427 100.98048565 421.21832275 101.7868042 C440.31598982 110.13946665 459.08539273 119.11505232 477.78411865 128.31774902 C479.38257929 129.10363381 480.98250214 129.88654274 482.58258057 130.66912842 C494.78757497 136.63986965 506.75714288 142.98880289 518.64068604 149.57537842 C521.59129973 151.20952622 524.54735943 152.8335402 527.503479 154.45770264 C598.13759704 193.45080292 664.57348444 240.4748424 725.92633057 292.80633545 C727.62535115 294.2542591 729.32807205 295.69776201 731.03082275 297.14129639 C737.77490375 302.87381138 744.38089824 308.72494776 750.878479 314.73504639 C753.05084771 316.73196682 755.24402688 318.68864622 757.47613525 320.61785889 C765.45506392 327.54736687 773.20544067 334.74289026 780.60919189 342.28338623 C782.31550563 343.96098432 784.05925309 345.50184338 785.89019775 347.03973389 C791.7720509 352.15388753 797.22136544 357.7140256 802.72052002 363.23187256 C804.59693001 365.11364163 806.47862494 366.99000627 808.36090088 368.86590576 C813.7972488 374.29955328 819.17400368 379.7225605 824.15753174 385.58099365 C826.16463586 387.90528905 828.33940903 390.03900704 830.53863525 392.18035889 C834.04456568 395.64944019 837.36662789 399.18315216 840.56988525 402.93035889 C842.61655218 405.26940681 844.72300671 407.54132412 846.84429932 409.81243896 C851.89247517 415.21794525 856.69456178 420.73015908 861.32769775 426.50067139 C863.64798476 429.31289203 866.0693466 431.99833151 868.53863525 434.68035889 C872.95240638 439.48676609 877.10223835 444.45145972 881.19732666 449.52996826 C882.74050562 451.42874689 884.30054322 453.31291627 885.862854 455.19598389 C892.9394673 463.72852336 899.83411226 472.35273694 906.53863525 481.18035889 C908.1215651 483.22233839 909.70490878 485.26399717 911.28863525 487.30535889 C917.25833802 495.04588728 923.03767355 502.926954 928.80670166 510.81756592 C930.38004854 512.96400673 931.96361309 515.10240837 933.550354 517.23895264 C944.79375555 532.48054255 955.11990908 548.37007009 965.53863525 564.18035889 C966.45685059 565.57327148 966.45685059 565.57327148 967.39361572 566.99432373 C970.48446158 571.69642783 973.53420647 576.42258215 976.53863525 581.18035889 C977.02525635 581.95073486 977.51187744 582.72111084 978.01324463 583.51483154 C997.76056304 614.88363081 1015.7804688 647.25577116 1032.57574463 680.29034424 C1033.54556673 682.19396438 1034.51996208 684.09517747 1035.4956665 685.99578857 C1046.2982443 707.05482515 1056.18286794 728.44152897 1065.53863525 750.18035889 C1065.85874573 750.92241577 1066.1788562 751.66447266 1066.50866699 752.42901611 C1076.6888595 776.04809397 1085.92910137 799.94663115 1094.53863525 824.18035889 C1094.82631775 824.98648621 1095.11400024 825.79261353 1095.41040039 826.62316895 C1130.73563402 925.63597192 1153.16886291 1029.61587917 1163.7769165 1161.23114014 C1163.871791 1162.5567395 1163.871791 1162.5567395 1163.96858215 1163.90911865 C1165.15849177 1181.43182902 1165.70287478 1198.94042719 1165.74176025 1216.50067139 C1165.74878536 1218.48006206 1165.75587215 1220.45945252 1165.76301575 1222.43884277 C1165.7824032 1228.72768483 1165.78745 1235.01648995 1165.78863525 1241.30535889 C1165.78907711 1242.37785133 1165.78951897 1243.45034378 1165.78997421 1244.555336 C1165.7970964 1277.53289938 1165.42398508 1310.30865106 1162.53863525 1343.18035889 C1162.36507093 1345.22786591 1162.19173654 1347.27539244 1162.01861572 1349.32293701 C1154.07141694 1441.95211883 1136.13529479 1533.69315058 1107.53863525 1622.18035889 C1107.28877869 1622.95466248 1107.03892212 1623.72896606 1106.78149414 1624.5267334 C1087.35471139 1684.63805787 1063.19199002 1742.40354397 1035.53863525 1799.18035889 C1035.10841064 1800.06417236 1034.67818604 1800.94798584 1034.23492432 1801.85858154 C1028.20982945 1814.18862541 1021.79604481 1826.28005307 1015.14361572 1838.28240967 C1013.50946792 1841.23302336 1011.88545394 1844.18908306 1010.2612915 1847.14520264 C1002.06187235 1861.99709256 993.3991384 1876.52782586 984.50933838 1890.97235107 C982.75384998 1893.83002174 981.01075936 1896.69469513 979.27301025 1899.56317139 C965.61383933 1922.01007588 950.79572042 1943.79360791 935.53863525 1965.18035889 C934.99690674 1965.94203369 934.45517822 1966.7037085 933.89703369 1967.48846436 C926.00704412 1978.56578523 917.86425188 1989.42753996 909.53863525 2000.18035889 C908.65377441 2001.32649658 908.65377441 2001.32649658 907.7510376 2002.49578857 C900.80158134 2011.49532514 893.78833297 2020.42030748 886.53863525 2029.18035889 C885.10094784 2030.95104007 883.66345323 2032.72187781 882.22613525 2034.49285889 C877.27840346 2040.54008663 872.18765317 2046.45962236 867.0869751 2052.37762451 C865.56022835 2054.15521801 864.04221817 2055.93987903 862.5269165 2057.72723389 C857.08604756 2064.13499354 851.55687312 2070.43117619 845.81011963 2076.56732178 C843.25202044 2079.30176384 840.75037772 2082.07237271 838.29766846 2084.90203857 C825.83740606 2099.16258546 812.37232227 2112.50863505 798.972229 2125.87713623 C796.50378198 2128.33981489 794.03995366 2130.80705864 791.57735443 2133.27558327 C789.18146984 2135.67597196 786.78176033 2138.07252167 784.38238525 2140.46942139 C783.07594055 2141.77890244 783.07594055 2141.77890244 781.74310303 2143.11483765 C777.36111105 2147.48016097 772.91432634 2151.69841439 768.22381592 2155.73098755 C766.27926276 2157.40343708 764.40030154 2159.13509697 762.53863525 2160.89910889 C761.87863525 2161.52172607 761.21863525 2162.14434326 760.53863525 2162.78582764 C759.87863525 2163.41102295 759.21863525 2164.03621826 758.53863525 2164.68035889 C753.30614811 2169.63691409 747.99721464 2174.47348474 742.53863525 2179.18035889 C741.97241455 2179.66875244 741.40619385 2180.157146 740.82281494 2180.66033936 C739.18877166 2182.06561657 737.55187794 2183.46748015 735.91363525 2184.86785889 C732.27233956 2187.98059529 728.63274807 2191.09471344 725.01519775 2194.23504639 C718.76932221 2199.64626815 712.4441269 2204.90659986 705.91607666 2209.97454834 C702.1914299 2212.86858138 698.52138297 2215.81860151 694.87872314 2218.81512451 C685.81299236 2226.2668421 676.48576405 2233.33315453 667.0557251 2240.31610107 C664.61574908 2242.12324529 662.180421 2243.9365013 659.7456665 2245.75067139 C614.85935518 2279.11406857 567.52825824 2309.21586349 518.53863525 2336.18035889 C517.52075928 2336.74077881 516.5028833 2337.30119873 515.4541626 2337.87860107 C484.52797784 2354.82767151 452.98095828 2370.41175174 420.61431885 2384.41375732 C416.87953897 2386.02952638 413.15570347 2387.66937161 409.4331665 2389.31317139 C352.94711825 2414.09657321 294.12950336 2433.43831332 234.53863525 2449.18035889 C233.8448175 2449.36471497 233.15099976 2449.54907104 232.43615723 2449.73901367 C141.57217181 2473.88196534 47.39680363 2486.38543827 -67.46136475 2489.18035889 C-68.54772217 2489.19695557 -69.63407959 2489.21355225 -70.75335693 2489.23065186 C-77.32529204 2489.32066314 -83.88976806 2489.28088977 -90.46136475 2489.18035889 C-91.10221008 2489.17175842 -91.74305542 2489.16315796 -92.40332031 2489.15429688 C-170.02709566 2488.11013241 -247.29858085 2480.26255152 -323.46136475 2465.18035889 C-324.32618469 2465.00911499 -325.19100464 2464.83787109 -326.08203125 2464.66143799 C-367.98364529 2456.32131563 -409.32863699 2445.71163752 -450.09075928 2432.92388916 C-452.44916609 2432.18418494 -454.80872191 2431.44823556 -457.168396 2430.71258545 C-506.16394012 2415.39672198 -553.79188437 2396.52209635 -600.46136475 2375.18035889 C-601.54031006 2374.68729248 -601.54031006 2374.68729248 -602.64105225 2374.18426514 C-623.41764427 2364.67569869 -643.82782237 2354.55050337 -664.06341553 2343.94110107 C-665.18473877 2343.36005615 -666.30606201 2342.77901123 -667.46136475 2342.18035889 C-668.01604431 2341.77648453 -668.57072388 2341.37261017 -669.14221191 2340.95649719 C-672.43333575 2338.78366735 -674.61171856 2338.10200461 -678.58956909 2338.46884155 C-682.53695278 2339.30722006 -686.39195035 2340.33106773 -690.27386475 2341.42645264 C-691.76616336 2341.82482773 -693.25915642 2342.22060912 -694.7527771 2342.61399841 C-697.96873672 2343.46683075 -701.17915448 2344.33740347 -704.38647461 2345.22216797 C-709.55166778 2346.64691142 -714.72695949 2348.03220795 -719.90423584 2349.41229248 C-727.16642613 2351.35153073 -734.42401131 2353.30715826 -741.67913818 2355.27264404 C-751.73166278 2357.99350094 -761.79946733 2360.65323446 -771.87542725 2363.28582764 C-772.66251635 2363.49155647 -773.44960545 2363.69728531 -774.26054573 2363.90924835 C-777.45169348 2364.74325037 -780.64290902 2365.57699191 -783.83426762 2366.41018677 C-792.10212553 2368.56913013 -800.36647815 2370.741357 -808.63052559 2372.91483307 C-812.084492 2373.82323081 -815.53854909 2374.73128346 -818.99260235 2375.63935089 C-820.75965125 2376.10390909 -822.52669592 2376.56848341 -824.29373646 2377.03307343 C-841.91694157 2381.6665339 -859.5410207 2386.29666936 -877.16524124 2390.92626572 C-879.23790529 2391.47072641 -881.3105651 2392.01520324 -883.38322067 2392.5596962 C-917.63325 2401.55726367 -951.88937022 2410.53140328 -986.14886475 2419.49285889 C-1017.08921842 2427.58617377 -1048.02860789 2435.68305083 -1078.96136475 2443.80535889 C-1079.74884472 2444.01213005 -1080.53632469 2444.21890121 -1081.34766769 2444.43193817 C-1092.81661229 2447.44343653 -1104.28525406 2450.45608734 -1115.7538147 2453.46904755 C-1130.9562748 2457.46294686 -1146.1588005 2461.45659639 -1161.36141968 2465.44989014 C-1165.57658333 2466.55709322 -1169.79173097 2467.66435718 -1174.00686646 2468.77166748 C-1196.45964307 2474.66986444 -1218.91359772 2480.56350416 -1241.371521 2486.44207764 C-1242.32936619 2486.69282232 -1243.28721138 2486.94356701 -1244.27408218 2487.20191002 C-1253.3479138 2489.57723188 -1262.42186047 2491.95211112 -1271.49645042 2494.32453442 C-1274.75762382 2495.17728386 -1278.01860819 2496.03075511 -1281.27960587 2496.88417625 C-1283.59815347 2497.49047487 -1285.91705068 2498.09542147 -1288.23599243 2498.70021057 C-1295.6100722 2500.62631079 -1302.97335033 2502.58481994 -1310.32220459 2504.60516357 C-1311.72948214 2504.98967926 -1313.13680433 2505.3740316 -1314.54417419 2505.75820923 C-1317.15387818 2506.47059705 -1319.75911981 2507.19509465 -1322.36354065 2507.92697144 C-1323.50852524 2508.23988129 -1324.65350983 2508.55279114 -1325.83319092 2508.87518311 C-1327.32721687 2509.2914949 -1327.32721687 2509.2914949 -1328.85142517 2509.71621704 C-1331.47957536 2510.18359739 -1332.97121965 2510.05899496 -1335.46136475 2509.18035889 C-1309.42955953 2413.66483177 -1309.42955953 2413.66483177 -1298.21136475 2372.74285889 C-1298.01456745 2372.02496941 -1297.81777016 2371.30707993 -1297.61500931 2370.56743622 C-1295.80911758 2363.97996002 -1294.00297013 2357.39255394 -1292.1966095 2350.8052063 C-1287.41851713 2333.38005901 -1282.64770229 2315.95291917 -1277.87657547 2298.52586365 C-1276.66587605 2294.10371524 -1275.4550978 2289.68158842 -1274.24432373 2285.25946045 C-1271.31660038 2274.56644586 -1268.38897548 2263.87340431 -1265.46136475 2253.18035889 C-1261.56560638 2238.95117169 -1257.66980102 2224.72199737 -1253.77386475 2210.49285889 C-1253.53430935 2209.6179266 -1253.29475395 2208.74299431 -1253.0479393 2207.84154892 C-1245.98441018 2182.0433738 -1238.91833354 2156.24589784 -1231.84998322 2130.44904327 C-1224.94709534 2105.2560036 -1218.04706275 2080.06218312 -1211.14886475 2054.86785889 C-1210.66634131 2053.10555008 -1210.18381771 2051.34324133 -1209.70129395 2049.58093262 C-1205.04358444 2032.56964913 -1200.38597083 2015.55833938 -1195.72896385 1998.54686356 C-1194.48631026 1994.00764777 -1193.24351035 1989.46847215 -1192.00039673 1984.92938232 C-1189.80830015 1976.92473157 -1187.61698945 1968.91987252 -1185.43107033 1960.91353226 C-1184.2582945 1956.6181631 -1183.08468229 1952.32302285 -1181.9105835 1948.02801514 C-1181.68208836 1947.19209839 -1181.45359322 1946.35618164 -1181.21817398 1945.49493408 C-1178.12270665 1934.17704859 -1174.98384933 1922.87210543 -1171.80741119 1911.57669067 C-1170.57540665 1907.1900914 -1169.35104156 1902.80135252 -1168.12675476 1898.41259384 C-1166.99762565 1894.3692211 -1165.85488063 1890.3300388 -1164.70118046 1886.29361248 C-1163.8473566 1883.29181234 -1163.01339781 1880.28448955 -1162.1762085 1877.27801514 C-1161.71260674 1875.68297401 -1161.71260674 1875.68297401 -1161.23963928 1874.05570984 C-1160.97241562 1873.0824324 -1160.70519196 1872.10915497 -1160.42987061 1871.10638428 C-1160.19279892 1870.2694252 -1159.95572723 1869.43246613 -1159.71147156 1868.57014465 C-1159.19973061 1863.68042887 -1162.30566518 1859.50236308 -1164.6293335 1855.36785889 C-1165.26758057 1854.22502441 -1165.90582764 1853.08218994 -1166.56341553 1851.90472412 C-1167.07246429 1850.9962825 -1167.07246429 1850.9962825 -1167.59179688 1850.06948853 C-1175.58859829 1835.77807454 -1183.22778282 1821.32202767 -1190.65423584 1806.72723389 C-1191.83759475 1804.40464024 -1193.02526045 1802.08423468 -1194.2177124 1799.76629639 C-1203.72796549 1781.27666986 -1212.31887806 1762.4613886 -1220.61859131 1743.4039917 C-1222.25679852 1739.64300725 -1223.91596821 1735.89157541 -1225.57855225 1732.14129639 C-1263.07767061 1646.9268932 -1289.34328171 1555.69315131 -1321.71136475 1334.43035889 C-1321.79453949 1333.29115997 -1321.87771423 1332.15196106 -1321.96340942 1330.97824097 C-1322.51079943 1323.38171702 -1323.01116934 1315.78326501 -1323.46136475 1308.18035889 C-1323.51684479 1307.24682587 -1323.57232483 1306.31329285 -1323.62948608 1305.35147095 C-1324.78267057 1285.00164956 -1324.66220586 1264.61785167 -1324.64886475 1244.24285889 C-1324.64859787 1243.33045315 -1324.64833099 1242.41804741 -1324.64805603 1241.47799301 C-1324.6289428 1189.4318765 -1324.6289428 1189.4318765 -1322.64819336 1163.61859131 C-1322.44501864 1160.96703175 -1322.24977969 1158.31494224 -1322.05462646 1155.66278076 C-1315.10109341 1062.32532971 -1298.1779946 970.87647829 -1271.46136475 881.18035889 C-1271.21450928 880.35020264 -1270.96765381 879.52004639 -1270.71331787 878.66473389 C-1259.63060345 841.47810534 -1246.34903336 805.00662648 -1231.46136475 769.18035889 C-1231.19817444 768.54696594 -1230.93498413 767.913573 -1230.66381836 767.26098633 C-1199.9997993 693.61720866 -1162.57127591 623.0574377 -1118.25238037 556.73651123 C-1116.4592002 554.05211855 -1114.6710065 551.36445276 -1112.88323975 548.67645264 C-1103.42374269 534.48120494 -1093.72701755 520.46181588 -1083.58636475 506.74285889 C-1082.72337769 505.57363892 -1082.72337769 505.57363892 -1081.84295654 504.38079834 C-1076.05344521 496.57269467 -1070.09655161 488.89835306 -1064.09124756 481.2555542 C-1062.54177206 479.28273489 -1060.99691964 477.30639588 -1059.45355225 475.32879639 C-1051.68685963 465.38892215 -1043.72240724 455.62923108 -1035.54949951 446.02044678 C-1032.61852814 442.5689603 -1029.74421724 439.07817626 -1026.89886475 435.55535889 C-1023.02323542 430.79228671 -1018.94902186 426.24671639 -1014.793396 421.72723389 C-1012.83731223 419.5909414 -1010.91948777 417.43255231 -1009.02386475 415.24285889 C-1004.74731952 410.32533264 -1000.31959665 405.54687054 -995.9052124 400.75360107 C-994.48458973 399.20566524 -993.07143824 397.65126074 -991.6605835 396.09442139 C-986.56770391 390.48435234 -981.38016713 385.01174603 -975.94573975 379.72723389 C-973.96072102 377.69227758 -972.10585622 375.63360571 -970.2543335 373.48114014 C-966.05750743 368.6442161 -961.56116959 364.13354035 -957.02386475 359.61785889 C-956.21626709 358.80639404 -955.40866943 357.9949292 -954.57659912 357.15887451 C-950.27427106 352.8634801 -945.89015135 348.74588167 -941.28143311 344.78216553 C-938.54447509 342.3734222 -936.00534981 339.78956326 -933.46136475 337.18035889 C-929.66538366 333.33765257 -925.82467716 329.64612246 -921.7074585 326.14520264 C-919.24397245 323.99018789 -916.86131709 321.76168013 -914.47576904 319.5211792 C-908.84831122 314.23589608 -903.1355227 309.18513839 -897.105896 304.35614014 C-894.30297227 302.05004189 -891.63133199 299.63884358 -888.96136475 297.18035889 C-884.14946041 292.7615397 -879.17866842 288.60802127 -874.09417725 284.50848389 C-872.24705691 283.00604151 -870.4160863 281.48519026 -868.58636475 279.96160889 C-860.1323194 272.92989621 -851.55598942 266.11089218 -842.78948975 259.47332764 C-839.02197707 256.61850092 -835.29581576 253.7137791 -831.57611084 250.79705811 C-823.96687518 244.83393493 -816.26994391 239.0695491 -808.35739136 233.51570129 C-806.49639298 232.20502873 -804.64139426 230.88631357 -802.7880249 229.56488037 C-791.62992955 221.62270527 -780.30157818 213.95361143 -768.89886475 206.36785889 C-767.97760803 205.75440613 -767.05635132 205.14095337 -766.10717773 204.50891113 C-744.30157917 189.99906957 -722.18463996 176.21344075 -699.46136475 163.18035889 C-698.5462915 162.65264893 -697.63121826 162.12493896 -696.68841553 161.58123779 C-659.00997857 139.87408019 -620.28707516 120.26288398 -580.42327881 102.90936279 C-577.0194716 101.42681069 -573.62537288 99.92344836 -570.23480225 98.41082764 C-514.72916887 73.74652873 -456.55157211 54.38915897 -397.89471436 38.82629395 C-395.57816845 38.21136455 -393.26286081 37.59195609 -390.94769287 36.97186279 C-316.53072143 17.12590817 -239.94804587 5.74925092 -163.1854248 0.37176514 C-160.63594663 0.19262589 -158.0869949 0.00718639 -155.5380249 -0.17901611 C-104.17534151 -3.844592 -51.35555926 -3.6572061 0 0 Z M-149.46136475 211.18035889 C-150.33675903 211.24352295 -151.21215332 211.30668701 -152.11407471 211.37176514 C-243.49259407 218.06129744 -333.61287692 236.40097215 -476.56982422 288.38726807 C-478.42337899 289.16443211 -480.27902235 289.93660883 -482.13470459 290.7086792 C-537.17763891 313.68221741 -590.82812657 341.84257057 -640.51165771 374.88397217 C-642.59579067 376.26974051 -644.68657809 377.64511443 -646.777771 379.02020264 C-669.2887878 393.87181831 -691.19528769 409.59549376 -712.46136475 426.18035889 C-713.61107966 427.07101573 -714.76082003 427.96163972 -715.9105835 428.85223389 C-722.87685115 434.26756106 -729.6781745 439.84070172 -736.387146 445.57098389 C-739.16869562 447.94304924 -741.99485136 450.25528601 -744.83636475 452.55535889 C-755.87754914 461.55841768 -766.49125751 471.02463485 -776.90716553 480.73944092 C-778.44612454 482.1662295 -779.99608064 483.57981839 -781.5512085 484.98895264 C-786.55434681 489.52532353 -791.46462843 494.12510229 -796.21136475 498.93035889 C-799.87084134 502.63183808 -803.61312882 506.12294238 -807.56292725 509.50848389 C-812.2558149 513.64131499 -816.59261349 518.11225397 -820.64886475 522.86785889 C-823.90569271 526.66374803 -827.40772157 530.16631201 -830.96136475 533.68035889 C-835.00056401 537.67929093 -838.9185809 541.69894492 -842.5980835 546.03582764 C-844.6023233 548.3425942 -846.67477732 550.57338192 -848.76068115 552.80609131 C-853.83094113 558.23379912 -858.66011448 563.76815188 -863.31292725 569.56317139 C-865.47648247 572.19877502 -867.72526035 574.72459264 -870.02386475 577.24285889 C-873.5990205 581.17553021 -876.9702774 585.21271354 -880.25823975 589.38739014 C-881.85979632 591.41773224 -883.47254258 593.43440758 -885.10198975 595.44207764 C-892.84373262 605.00012711 -900.25848584 614.78488231 -907.58978271 624.66033936 C-909.37740843 627.06731465 -911.17098092 629.46975616 -912.965271 631.87176514 C-928.01068266 652.07621426 -942.05312373 672.85755563 -955.46136475 694.18035889 C-956.02420166 695.06900635 -956.58703857 695.95765381 -957.16693115 696.87322998 C-984.78453762 740.49263184 -1009.19995009 786.69284882 -1029.46136475 834.18035889 C-1029.76324707 834.88640259 -1030.06512939 835.59244629 -1030.37615967 836.31988525 C-1064.78406448 916.93054433 -1088.84276405 1001.30348369 -1112.46136475 1188.18035889 C-1112.5037326 1188.99515717 -1112.54610046 1189.80995544 -1112.5897522 1190.64944458 C-1113.46227979 1207.80630309 -1113.66310712 1224.94076416 -1113.64886475 1242.11785889 C-1113.64859787 1242.79227776 -1113.64833099 1243.46669662 -1113.64805603 1244.16155243 C-1113.63632507 1267.88059091 -1113.20687283 1291.5190916 -1111.46136475 1315.18035889 C-1111.39820068 1316.04030457 -1111.33503662 1316.90025024 -1111.2699585 1317.78625488 C-1104.98175559 1402.15490376 -1088.40219193 1484.90788405 -981.99700928 1748.51922607 C-980.40410697 1751.27958143 -978.84833304 1754.05817129 -977.3012085 1756.84442139 C-970.01801347 1769.94507399 -962.28580737 1782.70338609 -954.25286865 1795.3571167 C-952.54930081 1798.0417799 -950.85337312 1800.73107743 -949.1605835 1803.42254639 C-948.38654175 1804.65098267 -948.38654175 1804.65098267 -947.59686279 1805.90423584 C-946.60452972 1807.48167172 -945.61501826 1809.06088681 -944.62860107 1810.64202881 C-942.39354287 1814.20772632 -940.11705835 1817.70463059 -937.64886475 1821.11395264 C-937.21493408 1821.73060791 -936.78100342 1822.34726318 -936.33392334 1822.98260498 C-935.18237366 1824.60739426 -933.99899535 1826.20949974 -932.81292725 1827.80926514 C-931.37139206 1831.40477054 -931.4244339 1832.21762986 -932.22763062 1835.82450867 C-932.52169737 1837.15547734 -932.52169737 1837.15547734 -932.82170486 1838.51333427 C-933.76442609 1842.4439555 -934.77446244 1846.34863296 -935.84954834 1850.24505615 C-936.0815028 1851.09647218 -936.31345726 1851.9478882 -936.55244064 1852.82510471 C-937.31833795 1855.63321653 -938.08904401 1858.43998401 -938.85980225 1861.24676514 C-939.40752795 1863.25106994 -939.95495548 1865.25545624 -940.50210571 1867.25991821 C-941.97086005 1872.6372994 -943.44379977 1878.01352586 -944.91755676 1883.38953781 C-946.46290731 1889.02951555 -948.00438807 1894.67055083 -949.54632568 1900.3114624 C-952.62169869 1911.55959895 -955.70149992 1922.80651881 -958.78277588 1934.05303955 C-960.29718295 1939.58061863 -961.81067796 1945.10844687 -963.32366943 1950.63641357 C-967.58188941 1966.19412885 -971.84376817 1981.75083637 -976.10948563 1997.30649757 C-980.90866851 2014.80784168 -985.70057185 2032.31117766 -990.49237061 2049.81454468 C-992.91409365 2058.66050497 -995.33616092 2067.50637101 -997.75823975 2076.35223389 C-997.99572937 2077.21958979 -998.23321899 2078.08694569 -998.47790527 2078.9805851 C-1003.07991934 2095.78790524 -1007.68227272 2112.5951324 -1012.28625107 2129.4019146 C-1013.55425716 2134.03090884 -1014.82182303 2138.66002334 -1016.08903122 2143.28923607 C-1019.75960843 2156.69751091 -1023.43404716 2170.10456654 -1027.14886475 2183.50067139 C-1027.68306542 2185.43002755 -1028.21724612 2187.35938925 -1028.75140381 2189.28875732 C-1029.68649198 2192.66564331 -1030.62643535 2196.04111816 -1031.56976318 2199.41571045 C-1031.96609353 2200.84502489 -1032.36226525 2202.27438332 -1032.75823975 2203.70379639 C-1033.25855713 2205.49696289 -1033.25855713 2205.49696289 -1033.76898193 2207.32635498 C-1034.57924565 2210.17679941 -1034.57924565 2210.17679941 -1034.46136475 2213.18035889 C-1022.68926662 2210.4665515 -1010.98322711 2207.55117194 -999.29730225 2204.48895264 C-997.54377048 2204.03107685 -995.79019339 2203.57337461 -994.03657532 2203.11582947 C-989.29657733 2201.87850548 -984.55726657 2200.63856837 -979.81809616 2199.39807892 C-975.77247824 2198.33947514 -971.72646325 2197.28239332 -967.68044949 2196.22530365 C-954.69871179 2192.83355359 -941.71828354 2189.43680966 -928.73830414 2186.03833771 C-925.50287949 2185.19122841 -922.26743279 2184.34420343 -919.03198242 2183.49719238 C-886.83894806 2175.06903008 -854.6493392 2166.62782302 -822.46136475 2158.18035889 C-820.85499397 2157.75878635 -820.85499397 2157.75878635 -819.21617126 2157.3286972 C-806.37213254 2153.95789153 -793.52833826 2150.58615674 -780.68482304 2147.21335697 C-774.46443576 2145.58002378 -768.24365178 2143.94821218 -762.02253437 2142.31766224 C-756.98242666 2140.9965638 -751.9425324 2139.67465277 -746.902771 2138.35223389 C-745.42992299 2137.96576722 -745.42992299 2137.96576722 -743.92732048 2137.57149315 C-730.40429352 2134.02149065 -716.8921345 2130.43255965 -703.38741112 2126.81358528 C-698.02325784 2125.37744441 -692.65736895 2123.94779898 -687.29147434 2122.51817989 C-682.32546021 2121.19408052 -677.36278086 2119.85833196 -672.40241337 2118.51324272 C-669.39875324 2117.70160452 -666.39226655 2116.90087359 -663.38487434 2116.10318756 C-662.0101212 2115.73607616 -660.63659148 2115.36434566 -659.26446342 2114.9875412 C-657.40015838 2114.47612304 -655.53094263 2113.98270827 -653.66156006 2113.49017334 C-652.10758514 2113.07152763 -652.10758514 2113.07152763 -650.5222168 2112.64442444 C-644.64972211 2111.75407677 -640.1228925 2112.97317817 -635.152771 2116.06707764 C-634.17058594 2116.66882812 -633.18840088 2117.27057861 -632.17645264 2117.89056396 C-631.13609863 2118.54307129 -630.09574463 2119.19557861 -629.02386475 2119.86785889 C-626.78510021 2121.24159 -624.54549519 2122.61395219 -622.30511475 2123.98504639 C-621.73652237 2124.33503189 -621.16792999 2124.6850174 -620.58210754 2125.04560852 C-605.14649216 2134.54153489 -589.37228758 2143.50746501 -573.46136475 2152.18035889 C-572.48344971 2152.71709229 -571.50553467 2153.25382568 -570.49798584 2153.80682373 C-498.32800254 2193.35277141 -420.91102446 2223.48218676 -290.46136475 2256.18035889 C-289.63499512 2256.35289185 -288.80862549 2256.5254248 -287.95721436 2256.70318604 C-251.1432291 2264.3645715 -213.95250967 2269.88132297 -176.52386475 2273.49285889 C-175.75356934 2273.56830933 -174.98327393 2273.64375977 -174.18963623 2273.72149658 C-168.28585009 2274.28969537 -162.37712221 2274.75586826 -156.46136475 2275.18035889 C-155.26803528 2275.26649445 -154.07470581 2275.35263 -152.84521484 2275.44137573 C-129.37989279 2277.08064259 -105.98130716 2277.54673774 -82.46282959 2277.4984169 C-79.66253604 2277.49276025 -76.86224858 2277.48994995 -74.06195068 2277.48733521 C-45.76523326 2277.44896298 -17.64456679 2276.92710167 10.53863525 2274.18035889 C11.91278595 2274.04953918 11.91278595 2274.04953918 13.31469727 2273.91607666 C107.36879361 2264.9397338 199.56947115 2244.19182582 311.53863525 2201.18035889 C312.49138336 2200.78104156 312.49138336 2200.78104156 313.46337891 2200.37365723 C322.87151991 2196.42034155 332.21916324 2192.33819663 341.53863525 2188.18035889 C342.59969482 2187.70840088 343.66075439 2187.23644287 344.75396729 2186.75018311 C372.43418073 2174.37667878 399.83455369 2160.96076371 426.01324463 2145.64813232 C428.55637288 2144.17004967 431.11437324 2142.72187501 433.67926025 2141.28192139 C486.96894917 2111.31780424 537.44845077 2075.73050904 583.96002197 2036.05804443 C587.2552695 2033.24986256 590.59841456 2030.51344399 593.97613525 2027.80535889 C599.66929382 2023.17758672 604.98906287 2018.18644863 610.33551025 2013.16864014 C612.67476617 2010.97575635 615.04315884 2008.83204515 617.47613525 2006.74285889 C630.1927615 1995.73310236 642.07624745 1983.80244264 653.94830322 1971.90106201 C656.5592988 1969.28465249 659.17567085 1966.67370343 661.7925415 1964.06317139 C663.47906053 1962.37599231 665.16526974 1960.68850347 666.85113525 1959.00067139 C667.62102783 1958.23280304 668.39092041 1957.46493469 669.18414307 1956.67379761 C673.28058235 1952.55971487 677.21965012 1948.36563049 680.99923706 1943.95787048 C683.54967224 1941.01293516 686.24073145 1938.20116965 688.91363525 1935.36785889 C693.63736635 1930.32470071 698.10697816 1925.15344913 702.42926025 1919.75848389 C704.55848671 1917.15609599 706.77312882 1914.66460387 709.03863525 1912.18035889 C713.74271669 1907.00505686 718.15856185 1901.63096142 722.53863525 1896.18035889 C723.00173096 1895.60624268 723.46482666 1895.03212646 723.94195557 1894.44061279 C735.26461011 1880.40126853 746.16703156 1866.09463988 756.81109619 1851.53436279 C758.36855945 1849.41211 759.93923558 1847.30060269 761.51519775 1845.19207764 C789.02930269 1808.08854501 812.85715864 1767.90238881 834.53863525 1727.18035889 C834.98158936 1726.35229736 835.42454346 1725.52423584 835.88092041 1724.67108154 C838.80827293 1719.19536912 841.69163029 1713.69826541 844.53863525 1708.18035889 C844.99029053 1707.30572998 845.4419458 1706.43110107 845.9072876 1705.52996826 C884.22186287 1630.97613582 911.58049618 1550.98466214 952.28863525 1321.30535889 C952.34780121 1320.53499298 952.40696716 1319.76462708 952.46792603 1318.97091675 C952.86526063 1313.70972454 953.21261768 1308.44640516 953.53863525 1303.18035889 C953.58669312 1302.445271 953.63475098 1301.71018311 953.68426514 1300.95281982 C954.87556422 1282.30289675 954.78424265 1263.61015626 954.78863525 1244.93035889 C954.78907711 1244.06814098 954.78951897 1243.20592308 954.78997421 1242.31757736 C954.79778599 1213.17655694 954.15770484 1184.22053181 951.53863525 1155.18035889 C951.4113504 1153.74406128 951.4113504 1153.74406128 951.28149414 1152.27874756 C942.88778929 1058.14920395 922.10232947 965.39860752 848.0713501 784.29266357 C846.67147222 781.45009537 845.28486184 778.60150304 843.9019165 775.75067139 C838.64648406 764.9900951 832.90598388 754.55376788 826.95269775 744.16473389 C824.64160244 740.13125601 822.36790011 736.08003976 820.12457275 732.00848389 C799.17879762 694.02459453 774.82542968 657.53033508 748.362854 623.16473389 C745.4383833 619.36649284 742.56186277 615.53670899 739.71002197 611.68377686 C734.7196928 604.94625774 729.51625317 598.47110366 724.04644775 592.11785889 C721.85790068 589.55432711 719.74649328 586.95468458 717.66363525 584.30535889 C710.0121186 574.65847752 701.76452155 565.47032269 693.4956665 556.35223389 C691.75446641 554.41988408 690.04831697 552.46377958 688.35113525 550.49285889 C680.17050572 541.113672 671.55835323 532.11594373 662.70269775 523.37567139 C660.70612603 521.3502683 658.82852234 519.27474796 656.97613525 517.11785889 C651.99161462 511.31428557 646.61096088 505.89465758 640.78863525 500.93035889 C637.0112789 497.69694185 633.53208057 494.2131235 630.03863525 490.68035889 C626.0182286 486.61942279 621.97639346 482.67742678 617.61676025 478.97723389 C615.45751131 477.11021413 613.36266838 475.18087982 611.27081299 473.23895264 C606.06175735 468.40450113 600.72531031 463.8192004 595.18707275 459.36004639 C592.56588407 457.2027849 590.04709245 454.96724888 587.53863525 452.68035889 C582.36316551 447.97612501 576.98719635 443.56320402 571.53863525 439.18035889 C570.42906742 438.27825227 569.31970085 437.37589805 568.21051025 436.47332764 C557.86589708 428.09015689 547.22850303 420.11590775 536.53863525 412.18035889 C535.71750244 411.56837646 534.89636963 410.95639404 534.050354 410.3258667 C523.37160923 402.36790259 512.58392457 394.62131158 501.53863525 387.18035889 C500.85011475 386.71452393 500.16159424 386.24868896 499.45220947 385.76873779 C438.28662086 344.42779024 373.05938527 309.63237098 304.53863525 282.18035889 C303.33593994 281.69792725 302.13324463 281.21549561 300.894104 280.71844482 C215.00956508 246.58547521 124.61370762 224.93596855 -5.14886475 211.43035889 C-5.94884888 211.37110229 -6.74883301 211.3118457 -7.57305908 211.25079346 C-31.01870657 209.54612004 -54.45779473 208.97217351 -77.96136475 208.99285889 C-79.24472717 208.99346313 -80.5280896 208.99406738 -81.8503418 208.99468994 C-104.44116662 209.02334653 -126.92840341 209.54877765 -149.46136475 211.18035889 Z " fill="#000000" transform="translate(2584.4613647460938,1245.8196411132813)"/>
<path d="M0 0 C0.84949219 0.69867187 1.69898437 1.39734375 2.57421875 2.1171875 C21.58213449 18.47622065 28.71535656 39.71625085 37.11334229 62.58685303 C38.06107079 65.16621158 39.01149262 67.74456651 39.96240234 70.32275391 C44.54076838 82.73871983 49.09843086 95.16222346 53.65039062 107.58789062 C59.24089356 122.8473937 64.84841954 138.10065963 70.45536804 153.35412598 C72.47573899 158.85079641 74.49492798 164.34789715 76.51220703 169.84570312 C86.18429029 196.20370852 95.90945673 222.54026738 105.8125 248.8125 C106.42541901 250.44100891 106.42541901 250.44100891 107.05072021 252.10241699 C111.37989523 263.59752459 115.73934361 275.07149624 120.44770813 286.41792297 C126.59017191 301.45192735 127.96710206 317.3253862 122 332.6875 C116.13060897 345.72100066 109.00340788 357.89685742 100 369 C99.27039062 369.92039062 98.54078125 370.84078125 97.7890625 371.7890625 C93.24490692 377.44932647 88.47960815 382.8680336 83.5546875 388.19921875 C81.55415888 390.39245884 79.59453897 392.60680649 77.6484375 394.84765625 C74.10899212 398.90603569 70.44878704 402.8370931 66.75 406.75 C65.42927353 408.15455877 64.10896423 409.55950992 62.7890625 410.96484375 C62.14614258 411.6491748 61.50322266 412.33350586 60.84082031 413.03857422 C53.25444041 421.12199281 45.89321984 429.3085489 39 438 C38.18660156 439.00675781 37.37320313 440.01351562 36.53515625 441.05078125 C24.3626541 456.29930759 12.19421674 474.58874572 13.0625 494.875 C14.39856337 506.14572333 20.44435555 516.07462054 25.9375 525.8125 C26.26225311 526.39204437 26.58700623 526.97158875 26.92160034 527.56869507 C33.64457963 539.56509617 40.71428128 551.33747466 48 563 C48.56009766 563.89992676 49.12019531 564.79985352 49.69726562 565.72705078 C59.07142492 580.75327672 68.94039296 595.4255907 79 610 C79.82346924 611.19665283 79.82346924 611.19665283 80.66357422 612.41748047 C88.48857872 623.76160039 96.7831043 634.72690062 105.18896484 645.64550781 C106.77314112 647.70506511 108.35136075 649.76892053 109.92578125 651.8359375 C117.31125804 661.51952128 125.02960221 670.90315872 132.92480469 680.17285156 C135.74117941 683.48565875 138.48035186 686.84672806 141.1875 690.25 C146.46785353 696.74161742 152.25882273 702.74472684 158.0234375 708.8046875 C160.8964363 711.82494964 163.73049483 714.87512849 166.53491211 717.95898438 C171.79745149 723.74090754 177.23160778 729.33686291 182.75 734.875 C183.44730225 735.57689453 184.14460449 736.27878906 184.86303711 737.00195312 C188.79084691 740.91811876 192.8222275 744.64513092 197.02197266 748.26708984 C200.37656506 751.20598109 203.58225983 754.30097179 206.8125 757.375 C212.21431485 762.48096238 217.68871977 767.33733848 223.50390625 771.96875 C226.02723331 774.02216169 228.41932273 776.17188057 230.8125 778.375 C235.78070323 782.89653512 241.00803577 787.01152206 246.3125 791.125 C249.36037249 793.48983975 252.36485843 795.9033899 255.3605957 798.33374023 C277.71875909 816.43121393 301.45511057 833.01415598 326 848 C327.38662842 848.84763916 327.38662842 848.84763916 328.80126953 849.71240234 C342.10837497 857.82166041 355.55707538 865.66520246 369.10571289 873.36132812 C375.39648348 876.93520793 381.65887168 880.54780851 387.875 884.25 C435.67214724 913.29606477 435.67214724 913.29606477 489.8125 916.875 C503.02414865 912.56985888 511.45737572 904.38573667 520.359375 894.1484375 C524.5740099 889.30767406 528.98127499 884.65894269 533.39453125 880 C537.13904276 876.03066275 540.78400077 871.99556604 544.36132812 867.875 C546.69440726 865.2054458 549.09401901 862.6041206 551.5 860 C555.14581791 856.04157708 558.74262472 852.04869527 562.265625 847.98046875 C564.27264538 845.68866845 566.32402851 843.44003248 568.375 841.1875 C571.50422827 837.72469918 574.50500349 834.19320997 577.4375 830.5625 C580.46717714 826.81347144 583.59604948 823.22027133 586.875 819.6875 C591.13656446 815.056512 595.04180172 810.2388964 598.88964844 805.2668457 C601.88855355 801.3954645 604.96535876 797.61668041 608.125 793.875 C611.4301425 789.95373299 614.54040579 785.95544025 617.5625 781.8125 C625.84332897 770.67420188 634.96006249 761.59629001 649 759 C695.9248959 753.93038015 756.25556928 799.5860449 796.0625 821 C806.72916346 826.72724155 817.42070783 832.40593202 828.125 838.0625 C841.40443535 845.0813836 854.64693144 852.16488756 867.86132812 859.30566406 C871.10884718 861.05875851 874.35875084 862.80735786 877.609375 864.5546875 C888.64240965 870.48583443 899.66581677 876.43300882 910.65087891 882.45263672 C915.6594557 885.19328185 920.68354763 887.90130473 925.7265625 890.578125 C926.87382812 891.18914063 928.02109375 891.80015625 929.203125 892.4296875 C931.40608206 893.60158018 933.61162075 894.76863927 935.8203125 895.9296875 C965.67666298 911.83799546 965.67666298 911.83799546 971 927 C981.16431009 978.27940223 961.94357757 1053.54483751 933.62597656 1096.37182617 C931.82606553 1098.97451626 929.930146 1101.49283483 928 1104 C926.95585937 1105.35931641 926.95585937 1105.35931641 925.890625 1106.74609375 C917.52148118 1117.26861216 908.38582888 1127.43793035 898 1136 C897.10667969 1136.78117187 896.21335937 1137.56234375 895.29296875 1138.3671875 C846.14963684 1181.23943921 783.13830768 1212.25831381 718.8125 1223.25 C717.93682373 1223.40106201 717.06114746 1223.55212402 716.15893555 1223.70776367 C699.20648716 1226.42364792 682.21058407 1227.38346993 665.0625 1227.3125 C664.13589569 1227.31067719 663.20929138 1227.30885437 662.25460815 1227.30697632 C566.97201495 1226.99402625 476.48530059 1187.85795757 377.78710938 1144.43081665 C371.72090376 1141.75278058 365.64425923 1139.09953101 359.5625 1136.45703125 C304.29723445 1112.42278218 251.9438669 1085.29291969 201.6875 1051.875 C200.5325705 1051.10786179 200.5325705 1051.10786179 199.35430908 1050.32522583 C189.4350729 1043.72972315 179.64021781 1036.99721492 170 1030 C169.12819092 1029.36835938 168.25638184 1028.73671875 167.3581543 1028.0859375 C152.12624416 1017.00478902 137.39337913 1005.39089422 122.80859375 993.4765625 C121.2076452 992.16952459 119.60402024 990.86576644 118 989.5625 C108.22789669 981.60846242 98.58995642 973.51889762 89.26171875 965.046875 C87.19326125 963.1749031 85.10439086 961.3313661 83 959.5 C71.69252579 949.63699355 60.44467456 939.60637166 49.92895508 928.89648438 C48.22281081 927.21906017 46.47919846 925.67836121 44.6484375 924.140625 C38.76658435 919.02647135 33.31726982 913.46633329 27.81811523 907.94848633 C25.94170525 906.06671726 24.06001031 904.19035262 22.17773438 902.31445312 C16.75154037 896.89095465 11.38652236 891.47804608 6.41235352 885.63061523 C4.23424785 883.11591035 1.88033782 880.82432987 -0.5 878.5 C-4.16300954 874.88592142 -7.6616565 871.19738372 -11 867.28125 C-13.16914062 864.80707398 -15.40883883 862.41072717 -17.66113281 860.01245117 C-22.92501766 854.4073886 -27.94934423 848.71711947 -32.7578125 842.7109375 C-35.23907812 839.71094039 -37.84888189 836.84869713 -40.5 834 C-44.75535938 829.42075151 -48.77323156 824.70713412 -52.6953125 819.8359375 C-55.2079458 816.74412094 -57.7865464 813.71569089 -60.375 810.6875 C-64.62570062 805.69703248 -68.71847626 800.60323375 -72.74267578 795.42895508 C-75.65658664 791.68856616 -78.62475567 788.00041345 -81.63647461 784.33837891 C-88.37362309 776.14044456 -94.77539159 767.72583908 -101.10546875 759.2109375 C-103.72412951 755.69246386 -106.37277369 752.20007506 -109.05078125 748.7265625 C-116.10814605 739.57108506 -122.94819337 730.3458856 -129.4074707 720.75732422 C-132.76755639 715.77315333 -136.22873451 710.88813978 -139.8125 706.0625 C-143.98901488 700.42597462 -147.95570258 694.69146543 -151.79931641 688.82080078 C-153.20182226 686.69394257 -154.62166703 684.57918766 -156.04296875 682.46484375 C-167.18910424 665.86801935 -178.00885904 649.06726866 -188.54467773 632.07641602 C-194.11845714 623.08863166 -199.82098828 614.21269256 -205.73336792 605.44393921 C-219.79879508 584.57383668 -232.76030531 563.15209943 -244.48681641 540.87060547 C-245.98253055 538.03314066 -247.49566919 535.20554789 -249.01171875 532.37890625 C-285.19534556 464.50951945 -315.86427697 384.24469119 -316.203125 306.3515625 C-316.21013931 305.26894135 -316.21715363 304.18632019 -316.22438049 303.07089233 C-316.24181187 299.58888552 -316.24823456 296.10704887 -316.25 292.625 C-316.25067474 291.43471191 -316.25134949 290.24442383 -316.25204468 289.01806641 C-316.23592714 271.132725 -315.72849001 253.70191078 -313 236 C-312.82839355 234.82791992 -312.65678711 233.65583984 -312.47998047 232.44824219 C-302.25437824 163.67444202 -273.4945967 98.72693083 -226.1953125 47.40625 C-225.01218261 46.10943859 -223.83549442 44.80585127 -222.70068359 43.46655273 C-216.92538837 36.68245238 -210.64593748 30.38856785 -204.36865234 24.07348633 C-203.04576293 22.73909494 -201.7273455 21.40025433 -200.41357422 20.05688477 C-189.91708804 9.32501009 -179.28776645 0.33829656 -165.875 -6.625 C-165.16819092 -6.99270508 -164.46138184 -7.36041016 -163.7331543 -7.73925781 C-148.56197386 -15.41539992 -132.64645789 -19.82048713 -116 -23 C-114.08960937 -23.37125 -114.08960937 -23.37125 -112.140625 -23.75 C-74.94390063 -29.59751999 -29.85890031 -24.73351427 0 0 Z " fill="#000000" transform="translate(2172,1899)"/>
</svg>
